<svg width="32" height="32" viewBox="0 0 32 32" fill="none" xmlns="http://www.w3.org/2000/svg">
    <!-- 背景圆圈 -->
    <circle cx="16" cy="16" r="15" fill="url(#favicon_gradient)" />
    <circle cx="16" cy="16" r="13" fill="white" />
    
    <!-- 爆米花组 -->
    <g id="favicon_popcorn">
        <!-- 爆米花杯 -->
        <path d="M9 13H23V24C23 24.5523 22.5523 25 22 25H10C9.44772 25 9 24.5523 9 24V13Z" fill="url(#cup_gradient)" />
        <path d="M8 13H24V14H8V13Z" fill="#E55A25" />
        
        <!-- 爆米花粒 -->
        <circle cx="12" cy="11" r="2.5" fill="#FFF2D1" />
        <circle cx="16" cy="9" r="3" fill="#FFF2D1" />
        <circle cx="20" cy="11" r="2.5" fill="#FFF2D1" />
        <circle cx="13" cy="15" r="2" fill="#FFF2D1" />
        <circle cx="17" cy="14" r="2.3" fill="#FFF2D1" />
        <circle cx="21" cy="15" r="2" fill="#FFF2D1" />
        <circle cx="12" cy="19" r="2" fill="#FFF2D1" />
        <circle cx="16" cy="20" r="2.5" fill="#FFF2D1" />
        <circle cx="19" cy="18" r="2" fill="#FFF2D1" />
    </g>
    
    <!-- 渐变定义 -->
    <defs>
        <linearGradient id="favicon_gradient" x1="3" y1="3" x2="29" y2="29" gradientUnits="userSpaceOnUse">
            <stop offset="0" stop-color="#FF6B35" />
            <stop offset="1" stop-color="#5F4BB6" />
        </linearGradient>
        <linearGradient id="cup_gradient" x1="9" y1="13" x2="23" y2="25" gradientUnits="userSpaceOnUse">
            <stop offset="0" stop-color="#FF8F6A" />
            <stop offset="1" stop-color="#FF6B35" />
        </linearGradient>
    </defs>
</svg> 