<svg xmlns="http://www.w3.org/2000/svg" width="96" height="96" viewBox="0 0 96 96" fill="none">
  <!-- 背景圆圈 -->
  <circle cx="48" cy="48" r="46" fill="url(#primary_gradient)" />
  <circle cx="48" cy="48" r="40" fill="white" />
  
  <!-- 爆米花组 -->
  <g id="popcorn_group">
    <!-- 爆米花杯 -->
    <path d="M28 38H68V72C68 74.2091 66.2091 76 64 76H32C29.7909 76 28 74.2091 28 72V38Z" fill="url(#container_gradient)" />
    <path d="M26 38H70V42H26V38Z" fill="#E55A25" />
    
    <!-- 爆米花粒 -->
    <circle cx="36" cy="32" r="8" fill="#FFF2D1" />
    <circle cx="48" cy="28" r="10" fill="#FFF2D1" />
    <circle cx="60" cy="32" r="8" fill="#FFF2D1" />
    <circle cx="40" cy="44" r="6" fill="#FFF2D1" />
    <circle cx="52" cy="42" r="7" fill="#FFF2D1" />
    <circle cx="64" cy="46" r="6" fill="#FFF2D1" />
    <circle cx="36" cy="56" r="6" fill="#FFF2D1" />
    <circle cx="48" cy="60" r="8" fill="#FFF2D1" />
    <circle cx="58" cy="54" r="6" fill="#FFF2D1" />
    <circle cx="38" cy="68" r="5" fill="#FFF2D1" />
    <circle cx="54" cy="70" r="5" fill="#FFF2D1" />
    
    <!-- 添加细节 -->
    <path d="M36 32C36 32 34 30 33 29M48 28C48 28 46 24 45 22M60 32C60 32 63 30 64 29" stroke="#EDBA2F" stroke-width="1.5" stroke-linecap="round" />
    <path d="M40 44C40 44 38 42 37 41M52 42C52 42 54 40 55 39M64 46C64 46 66 44 67 43" stroke="#EDBA2F" stroke-width="1.5" stroke-linecap="round" />
  </g>
  
  <!-- 渐变定义 -->
  <defs>
    <linearGradient id="primary_gradient" x1="10" y1="10" x2="86" y2="86" gradientUnits="userSpaceOnUse">
      <stop offset="0" stop-color="#FF6B35" />
      <stop offset="1" stop-color="#5F4BB6" />
    </linearGradient>
    <linearGradient id="container_gradient" x1="28" y1="38" x2="68" y2="76" gradientUnits="userSpaceOnUse">
      <stop offset="0" stop-color="#FF8F6A" />
      <stop offset="1" stop-color="#FF6B35" />
    </linearGradient>
  </defs>
</svg> 